# xmcd
#
# Track frame offsets: 
#        150
#        18446
#        27085
#        44522
#        60119
#        74230
#        83564
#        105758
#        117690
#        132972
#        148771
#        157895
#        174395
#
# Disc length: 2510 seconds
#
# Revision: 0
# Processed by: cddbd v1.5.2PL0 Copyright (c) Steve Scherf et al.
# Submitted via: ExactAudioCopy v0.95b4
#
DISCID=a709cc0d
DTITLE=Louderdales - Songs of No Return
DYEAR=2012
DGENRE=Americana
TTITLE0=Bad To The Bone
TTITLE1=Corona
TTITLE2=Jimmy James
TTITLE3=On And On
TTITLE4=Someone Should Have Told Me
TTITLE5=Gunslinger
TTITLE6=Town Called Misery
TTITLE7=Ride Ride Ride
TTITLE8=My Father's Son
TTITLE9=Beggars Swing
TTITLE10=Cindy Cindy
TTITLE11=Quittin' Time
TTITLE12=Spanish Girls
EXTD=
EXTT0=
EXTT1=
EXTT2=
EXTT3=
EXTT4=
EXTT5=
EXTT6=
EXTT7=
EXTT8=
EXTT9=
EXTT10=
EXTT11=
EXTT12=
PLAYORDER=
